<?xml version="1.0" encoding="utf-8"?>
<!-- Generator: Adobe Illustrator 24.3.0, SVG Export Plug-In . SVG Version: 6.00 Build 0)  -->
<svg version="1.1" id="Layer_1" xmlns="http://www.w3.org/2000/svg" xmlns:xlink="http://www.w3.org/1999/xlink" x="0px" y="0px"
	 viewBox="0 0 200 200" style="enable-background:new 0 0 200 200;" xml:space="preserve">
<style type="text/css">
	.st0{fill:url(#SVGID_1_);}
	.st1{fill:#ECEEFB;}
	.st2{fill:#1943EF;}
</style>
<g>
	<linearGradient id="SVGID_1_" gradientUnits="userSpaceOnUse" x1="155.4019" y1="34.4077" x2="183.5758" y2="34.4077">
		<stop  offset="0" style="stop-color:#FD9C29"/>
		<stop  offset="1" style="stop-color:#E06B43"/>
	</linearGradient>
	<path class="st0" d="M169.5,20.3c-7.8,0-14.1,6.3-14.1,14.1s6.3,14.1,14.1,14.1s14.1-6.3,14.1-14.1S177.3,20.3,169.5,20.3z
		 M169.5,42.7c-4.6,0-8.2-3.7-8.2-8.2s3.7-8.2,8.2-8.2c4.6,0,8.2,3.7,8.2,8.2S174,42.7,169.5,42.7z"/>
</g>
<circle class="st1" cx="101.2" cy="101.9" r="65.9"/>
<g>
	<path class="st2" d="M135.5,67.6l-47.7,8.8l-12,27l-4.1-4.1l-12.8,12.8l32.1,32.1l12.8-12.8l-4.1-4.1l27-12L135.5,67.6z
		 M90.9,137.8l-25.7-25.7l6.4-6.4l25.7,25.7L90.9,137.8z M96.2,123.9l-17.1-17.1l11.7-26.4l35-6.5l-14.4,14.4
		c-2.5-1.2-5.6-0.8-7.7,1.3c-1.3,1.3-2,3-2,4.8c0,3.8,3,6.8,6.8,6.8c1.8,0,3.5-0.7,4.8-2c2.1-2.1,2.5-5.3,1.3-7.7l14.4-14.4l-6.5,35
		L96.2,123.9z M110.2,96.1c-0.4,0.4-1,0.7-1.6,0.7c-1.3,0-2.3-1-2.3-2.3c0-1.3,1-2.3,2.3-2.3c0.6,0,1.2,0.2,1.6,0.7
		C111.1,93.8,111.1,95.2,110.2,96.1L110.2,96.1z"/>
</g>
<circle class="st2" cx="43.9" cy="173.2" r="5.4"/>
</svg>
