<?xml version="1.0" encoding="utf-8"?>
<!-- Generator: Adobe Illustrator 24.3.0, SVG Export Plug-In . SVG Version: 6.00 Build 0)  -->
<svg version="1.1" id="Layer_1" xmlns="http://www.w3.org/2000/svg" xmlns:xlink="http://www.w3.org/1999/xlink" x="0px" y="0px"
	 viewBox="0 0 200 200" style="enable-background:new 0 0 200 200;" xml:space="preserve">
<style type="text/css">
	.st0{fill:#ECEEFB;}
	.st1{fill:#1943EF;}
	.st2{fill:url(#SVGID_1_);}
</style>
<circle class="st0" cx="101.2" cy="101.9" r="65.9"/>
<circle class="st1" cx="151.5" cy="144.3" r="5.4"/>
<g>
	<g>
		<g>
			<path class="st1" d="M135.4,87c0-0.8-0.7-1.5-1.6-1.5h-6.4c-0.9,0-1.6,0.7-1.6,1.5c0,0.8,0.7,1.5,1.6,1.5h6.4
				C134.7,88.5,135.4,87.9,135.4,87z"/>
			<path class="st1" d="M68.2,87c0,0.8,0.7,1.5,1.6,1.5h6.4c0.9,0,1.6-0.7,1.6-1.5c0-0.8-0.7-1.5-1.6-1.5h-6.4
				C68.9,85.5,68.2,86.2,68.2,87z"/>
			<path class="st1" d="M128.7,70.8l-5.5,3c-0.8,0.4-1,1.3-0.6,2c0.4,0.7,1.4,1,2.2,0.5l5.5-3c0.8-0.4,1-1.3,0.6-2
				C130.4,70.6,129.5,70.3,128.7,70.8z"/>
			<path class="st1" d="M78.8,97.7l-5.5,3c-0.8,0.4-1,1.3-0.6,2c0.4,0.7,1.4,1,2.2,0.5l5.5-3c0.8-0.4,1-1.3,0.6-2
				C80.6,97.6,79.6,97.3,78.8,97.7z"/>
			<path class="st1" d="M124.8,97.7c-0.8-0.4-1.7-0.2-2.2,0.5c-0.4,0.7-0.2,1.6,0.6,2l5.5,3c0.8,0.4,1.7,0.2,2.2-0.5
				c0.4-0.7,0.2-1.6-0.6-2L124.8,97.7z"/>
			<path class="st1" d="M80.4,73.7l-5.5-3c-0.8-0.4-1.7-0.2-2.2,0.5c-0.4,0.7-0.2,1.6,0.6,2l5.5,3c0.8,0.4,1.7,0.2,2.2-0.5
				C81.5,75.1,81.2,74.2,80.4,73.7z"/>
			<ellipse class="st1" cx="115.4" cy="74.3" rx="1.6" ry="1.5"/>
			<path class="st1" d="M81,87c0,5.4,2.4,10.6,6.7,14.3c2.9,2.5,4.9,6,5.7,10c0,0,0.4,2.8,0.4,4.2v15.3c0,0.2,0.1,0.5,0.2,0.7
				l6.4,12c0.3,0.5,0.8,0.8,1.4,0.8s1.2-0.3,1.4-0.8l6.4-12c0.1-0.2,0.2-0.5,0.2-0.7v-15.7c0-1.3,0.1-2.6,0.4-3.8
				c0.8-3.9,2.9-7.5,6.1-10.3c4-3.7,6.3-8.5,6.3-13.8c0-2.8-0.5-5.5-1.7-8c-0.3-0.8-1.3-1.1-2.1-0.8c-0.8,0.3-1.2,1.2-0.8,2
				c1,2.1,1.4,4.4,1.4,6.7c0,4.4-1.9,8.6-5.4,11.7c-3.3,3-5.5,6.6-6.7,10.6h-0.8v-15h1.6c2.6,0,4.8-2,4.8-4.5c0-2.5-2.2-4.5-4.8-4.5
				s-4.8,2-4.8,4.5v1.5h-3.2V90c0-2.5-2.2-4.5-4.8-4.5c-2.6,0-4.8,2-4.8,4.5c0,2.5,2.2,4.5,4.8,4.5H97v15h-0.8
				c-1.1-4.1-3.3-7.7-6.4-10.4c-3.6-3.1-5.7-7.5-5.7-12.1c0-9.1,7.9-16.5,17.6-16.5h0c2.4,0,4.8,0.5,7,1.3c0.8,0.3,1.8,0,2.1-0.8
				c0.3-0.8,0-1.6-0.8-2c-2.6-1-5.4-1.6-8.3-1.6c0,0,0,0,0,0C90.3,67.6,81,76.3,81,87L81,87z M106.6,90c0-0.8,0.7-1.5,1.6-1.5
				s1.6,0.7,1.6,1.5s-0.7,1.5-1.6,1.5h-1.6V90z M101.8,139.4l-2.2-4.1h4.4L101.8,139.4z M105.6,132.3H98l-0.4-0.8l4.3-2l4.3,2
				L105.6,132.3z M106.6,128.4l-4.1-1.9c-0.5-0.2-1-0.2-1.4,0l-4.1,1.9v-9.9h9.6V128.4z M100.2,94.5h3.2v15h-3.2V94.5z M95.4,91.5
				c-0.9,0-1.6-0.7-1.6-1.5s0.7-1.5,1.6-1.5c0.9,0,1.6,0.7,1.6,1.5v1.5H95.4z M106.8,112.5c-0.1,0.9-0.2,1.7-0.2,2.6v0.4H97v0
				c0-1-0.1-2-0.2-3H106.8z"/>
		</g>
	</g>
</g>
<g>
	<linearGradient id="SVGID_1_" gradientUnits="userSpaceOnUse" x1="22.4915" y1="26.224" x2="42.0026" y2="26.224">
		<stop  offset="0" style="stop-color:#FD9C29"/>
		<stop  offset="1" style="stop-color:#E06B43"/>
	</linearGradient>
	<path class="st2" d="M32.2,16.5c-5.4,0-9.8,4.4-9.8,9.8s4.4,9.8,9.8,9.8s9.8-4.4,9.8-9.8S37.6,16.5,32.2,16.5z M32.2,31.9
		c-3.2,0-5.7-2.6-5.7-5.7s2.6-5.7,5.7-5.7c3.2,0,5.7,2.6,5.7,5.7S35.4,31.9,32.2,31.9z"/>
</g>
</svg>
