<svg width="1107" height="471" viewBox="0 0 1107 471" fill="none" xmlns="http://www.w3.org/2000/svg">
<g clip-path="url(#clip0)">
<path d="M245.039 384.966C197.703 384.966 159.362 423.314 159.362 470.659C159.362 518.004 197.703 556.352 245.039 556.352C292.375 556.352 330.716 518.004 330.716 470.659C330.716 423.314 292.375 384.966 245.039 384.966ZM245.039 520.887C217.364 520.887 194.878 498.455 194.878 470.717C194.878 442.979 217.306 420.546 245.039 420.546C272.772 420.546 295.2 442.979 295.2 470.717C295.2 498.455 272.772 520.887 245.039 520.887Z" fill="url(#paint0_linear)"/>
<path d="M937.837 44C853.889 44 785.797 112.047 785.797 196.068C785.797 280.09 853.831 348.137 937.837 348.137C1021.78 348.137 1089.88 280.09 1089.88 196.068C1089.88 112.047 1021.84 44 937.837 44ZM937.837 285.049C888.713 285.049 848.873 245.201 848.873 196.068C848.873 146.936 888.713 107.088 937.837 107.088C986.96 107.088 1026.8 146.936 1026.8 196.068C1026.8 245.201 987.017 285.049 937.837 285.049Z" fill="#2656EF"/>
<path opacity="0.12" d="M122.635 424.237C131.36 424.237 138.433 417.163 138.433 408.436C138.433 399.71 131.36 392.635 122.635 392.635C113.91 392.635 106.837 399.71 106.837 408.436C106.837 417.163 113.91 424.237 122.635 424.237Z" fill="white"/>
<path d="M1082.78 96.8026C1086.7 96.8026 1089.88 93.6269 1089.88 89.7095C1089.88 85.7921 1086.7 82.6165 1082.78 82.6165C1078.87 82.6165 1075.69 85.7921 1075.69 89.7095C1075.69 93.6269 1078.87 96.8026 1082.78 96.8026Z" fill="url(#paint1_linear)"/>
<path opacity="0.05" d="M527.036 445.977H392.754C380.762 445.977 371.018 436.232 371.018 424.237C371.018 412.242 380.762 402.496 392.754 402.496H527.036C539.028 402.496 548.772 412.242 548.772 424.237C548.715 436.289 539.028 445.977 527.036 445.977Z" fill="white"/>
<path opacity="0.05" d="M88.6753 51.1878C90.6496 51.1878 92.25 49.5871 92.25 47.6125C92.25 45.6379 90.6496 44.0371 88.6753 44.0371C86.7011 44.0371 85.1006 45.6379 85.1006 47.6125C85.1006 49.5871 86.7011 51.1878 88.6753 51.1878Z" fill="white"/>
<path opacity="0.05" d="M106.837 51.1878C108.811 51.1878 110.412 49.5871 110.412 47.6125C110.412 45.6379 108.811 44.0371 106.837 44.0371C104.863 44.0371 103.262 45.6379 103.262 47.6125C103.262 49.5871 104.863 51.1878 106.837 51.1878Z" fill="white"/>
<path opacity="0.05" d="M124.999 51.1878C126.973 51.1878 128.573 49.5871 128.573 47.6125C128.573 45.6379 126.973 44.0371 124.999 44.0371C123.025 44.0371 121.424 45.6379 121.424 47.6125C121.424 49.5871 123.025 51.1878 124.999 51.1878Z" fill="white"/>
<path opacity="0.05" d="M143.16 51.1878C145.135 51.1878 146.735 49.5871 146.735 47.6125C146.735 45.6379 145.135 44.0371 143.16 44.0371C141.186 44.0371 139.586 45.6379 139.586 47.6125C139.586 49.5871 141.186 51.1878 143.16 51.1878Z" fill="white"/>
<path opacity="0.05" d="M88.6753 70.564C90.6496 70.564 92.25 68.9633 92.25 66.9887C92.25 65.0141 90.6496 63.4133 88.6753 63.4133C86.7011 63.4133 85.1006 65.0141 85.1006 66.9887C85.1006 68.9633 86.7011 70.564 88.6753 70.564Z" fill="white"/>
<path opacity="0.05" d="M106.837 70.564C108.811 70.564 110.412 68.9633 110.412 66.9887C110.412 65.0141 108.811 63.4133 106.837 63.4133C104.863 63.4133 103.262 65.0141 103.262 66.9887C103.262 68.9633 104.863 70.564 106.837 70.564Z" fill="white"/>
<path opacity="0.05" d="M124.999 70.564C126.973 70.564 128.573 68.9633 128.573 66.9887C128.573 65.0141 126.973 63.4133 124.999 63.4133C123.025 63.4133 121.424 65.0141 121.424 66.9887C121.424 68.9633 123.025 70.564 124.999 70.564Z" fill="white"/>
<path opacity="0.05" d="M143.16 70.564C145.135 70.564 146.735 68.9633 146.735 66.9887C146.735 65.0141 145.135 63.4133 143.16 63.4133C141.186 63.4133 139.586 65.0141 139.586 66.9887C139.586 68.9633 141.186 70.564 143.16 70.564Z" fill="white"/>
<path opacity="0.05" d="M88.6753 89.9402C90.6496 89.9402 92.25 88.3394 92.25 86.3648C92.25 84.3902 90.6496 82.7894 88.6753 82.7894C86.7011 82.7894 85.1006 84.3902 85.1006 86.3648C85.1006 88.3394 86.7011 89.9402 88.6753 89.9402Z" fill="white"/>
<path opacity="0.05" d="M106.837 89.9402C108.811 89.9402 110.412 88.3394 110.412 86.3648C110.412 84.3902 108.811 82.7894 106.837 82.7894C104.863 82.7894 103.262 84.3902 103.262 86.3648C103.262 88.3394 104.863 89.9402 106.837 89.9402Z" fill="white"/>
<path opacity="0.05" d="M124.999 89.9402C126.973 89.9402 128.573 88.3394 128.573 86.3648C128.573 84.3902 126.973 82.7894 124.999 82.7894C123.025 82.7894 121.424 84.3902 121.424 86.3648C121.424 88.3394 123.025 89.9402 124.999 89.9402Z" fill="white"/>
<path opacity="0.05" d="M143.16 89.9402C145.135 89.9402 146.735 88.3394 146.735 86.3648C146.735 84.3902 145.135 82.7894 143.16 82.7894C141.186 82.7894 139.586 84.3902 139.586 86.3648C139.586 88.3394 141.186 89.9402 143.16 89.9402Z" fill="white"/>
<path opacity="0.05" d="M88.6753 109.259C90.6496 109.259 92.25 107.658 92.25 105.683C92.25 103.709 90.6496 102.108 88.6753 102.108C86.7011 102.108 85.1006 103.709 85.1006 105.683C85.1006 107.658 86.7011 109.259 88.6753 109.259Z" fill="white"/>
<path opacity="0.05" d="M106.837 109.259C108.811 109.259 110.412 107.658 110.412 105.683C110.412 103.709 108.811 102.108 106.837 102.108C104.863 102.108 103.262 103.709 103.262 105.683C103.262 107.658 104.863 109.259 106.837 109.259Z" fill="white"/>
<path opacity="0.05" d="M124.999 109.259C126.973 109.259 128.573 107.658 128.573 105.683C128.573 103.709 126.973 102.108 124.999 102.108C123.025 102.108 121.424 103.709 121.424 105.683C121.424 107.658 123.025 109.259 124.999 109.259Z" fill="white"/>
<path opacity="0.05" d="M143.16 109.259C145.135 109.259 146.735 107.658 146.735 105.683C146.735 103.709 145.135 102.108 143.16 102.108C141.186 102.108 139.586 103.709 139.586 105.683C139.586 107.658 141.186 109.259 143.16 109.259Z" fill="white"/>
</g>
<defs>
<linearGradient id="paint0_linear" x1="159.362" y1="470.636" x2="330.716" y2="470.636" gradientUnits="userSpaceOnUse">
<stop stop-color="#FD9C29"/>
<stop offset="1" stop-color="#E06B43"/>
</linearGradient>
<linearGradient id="paint1_linear" x1="1075.69" y1="89.6945" x2="1089.88" y2="89.6945" gradientUnits="userSpaceOnUse">
<stop stop-color="#FD9C29"/>
<stop offset="1" stop-color="#E06B43"/>
</linearGradient>
<clipPath id="clip0">
<rect width="1107" height="751" fill="white" transform="translate(0 -180)"/>
</clipPath>
</defs>
</svg>
