<?xml version="1.0" encoding="utf-8"?>
<!-- Generator: Adobe Illustrator 24.3.0, SVG Export Plug-In . SVG Version: 6.00 Build 0)  -->
<svg version="1.1" id="Layer_1" xmlns="http://www.w3.org/2000/svg" xmlns:xlink="http://www.w3.org/1999/xlink" x="0px" y="0px"
	 viewBox="0 0 1920 318.5" style="enable-background:new 0 0 1920 318.5;" xml:space="preserve">
<style type="text/css">
	.st0{fill:url(#SVGID_1_);}
	.st1{fill:#EAEAEA;}
	.st2{fill:#FD9C29;}
	.st3{fill:url(#SVGID_2_);}
	.st4{fill:#E06B43;}
	.st5{fill:#1943EF;}
	.st6{opacity:5.000000e-02;}
	.st7{opacity:0.12;}
	.st8{fill:url(#SVGID_3_);}
</style>
<g>
	<linearGradient id="SVGID_1_" gradientUnits="userSpaceOnUse" x1="260.2877" y1="318.4658" x2="557.5479" y2="318.4658">
		<stop  offset="0" style="stop-color:#FD9C29"/>
		<stop  offset="1" style="stop-color:#E06B43"/>
	</linearGradient>
	<path class="st0" d="M408.9,169.8c-82.1,0-148.6,66.5-148.6,148.6s66.5,148.6,148.6,148.6s148.6-66.5,148.6-148.6
		S491,169.8,408.9,169.8z M408.9,405.5c-48,0-87-38.9-87-87s38.9-87,87-87s87,38.9,87,87S457,405.5,408.9,405.5z"/>
</g>
<g>
	<g>
		<path class="st1" d="M1562.3,54.8c-145.6,0-263.7,118-263.7,263.7s118,263.7,263.7,263.7c145.6,0,263.7-118,263.7-263.7
			S1708,54.8,1562.3,54.8z M1562.3,472.8c-85.2,0-154.3-69.1-154.3-154.3s69.1-154.3,154.3-154.3c85.2,0,154.3,69.1,154.3,154.3
			S1647.6,472.8,1562.3,472.8z"/>
	</g>
</g>
<rect x="98.6" y="-839.7" class="st2" width="153.4" height="50.7"/>
<linearGradient id="SVGID_2_" gradientUnits="userSpaceOnUse" x1="273.9863" y1="-814.3835" x2="427.4109" y2="-814.3835">
	<stop  offset="0" style="stop-color:#FD9C29"/>
	<stop  offset="1" style="stop-color:#E06B43"/>
</linearGradient>
<rect x="274" y="-839.7" class="st3" width="153.4" height="50.7"/>
<rect x="449.3" y="-839.7" class="st4" width="153.4" height="50.7"/>
<circle class="st5" cx="654.8" cy="193.2" r="27.4"/>
<circle class="st5" cx="1846.6" cy="34.2" r="12.3"/>
<path class="st6" d="M884.7,230.8H651.8c-20.8,0-37.7-16.9-37.7-37.7v0c0-20.8,16.9-37.7,37.7-37.7h232.9
	c20.8,0,37.7,16.9,37.7,37.7v0C922.3,214,905.5,230.8,884.7,230.8z"/>
<path class="st6" d="M53.2,131.4h-232.9c-20.8,0-37.7-16.9-37.7-37.7v0c0-20.8,16.9-37.7,37.7-37.7H53.2c20.8,0,37.7,16.9,37.7,37.7
	v0C90.8,114.5,74,131.4,53.2,131.4z"/>
<circle class="st7" cx="217.8" cy="124.6" r="6.2"/>
<circle class="st7" cx="249.3" cy="124.6" r="6.2"/>
<circle class="st7" cx="280.8" cy="124.6" r="6.2"/>
<circle class="st7" cx="312.3" cy="124.6" r="6.2"/>
<circle class="st7" cx="217.8" cy="158.2" r="6.2"/>
<circle class="st7" cx="249.3" cy="158.2" r="6.2"/>
<circle class="st7" cx="280.8" cy="158.2" r="6.2"/>
<circle class="st7" cx="312.3" cy="158.2" r="6.2"/>
<circle class="st7" cx="217.8" cy="191.8" r="6.2"/>
<circle class="st7" cx="249.3" cy="191.8" r="6.2"/>
<circle class="st7" cx="280.8" cy="191.8" r="6.2"/>
<circle class="st7" cx="312.3" cy="191.8" r="6.2"/>
<circle class="st7" cx="217.8" cy="225.3" r="6.2"/>
<circle class="st7" cx="249.3" cy="225.3" r="6.2"/>
<circle class="st7" cx="280.8" cy="225.3" r="6.2"/>
<circle class="st7" cx="312.3" cy="225.3" r="6.2"/>
<g>
	<linearGradient id="SVGID_3_" gradientUnits="userSpaceOnUse" x1="1362.8647" y1="110.5612" x2="1434.0977" y2="110.5612">
		<stop  offset="0" style="stop-color:#FD9C29"/>
		<stop  offset="1" style="stop-color:#E06B43"/>
	</linearGradient>
	<path class="st8" d="M1398.5,74.9c-19.7,0-35.6,15.9-35.6,35.6s15.9,35.6,35.6,35.6s35.6-15.9,35.6-35.6S1418.2,74.9,1398.5,74.9z
		 M1398.5,131.4c-11.5,0-20.8-9.3-20.8-20.8s9.3-20.8,20.8-20.8s20.8,9.3,20.8,20.8S1410,131.4,1398.5,131.4z"/>
</g>
</svg>
