<svg width="16" height="16" viewBox="0 0 16 16" fill="none" xmlns="http://www.w3.org/2000/svg">
<g clip-path="url(#clip0)">
<path d="M15.9844 4.70404C15.9469 3.8539 15.8094 3.26944 15.6125 2.76299C15.4093 2.22541 15.0967 1.74412 14.6872 1.34401C14.2871 0.937683 13.8027 0.621948 13.2713 0.421957C12.7619 0.22502 12.1805 0.0875415 11.3304 0.0500586C10.4739 0.00940124 10.202 0 8.02968 0C5.85738 0 5.58547 0.00940124 4.73216 0.0468842C3.88201 0.0843671 3.29755 0.221967 2.79122 0.418783C2.25352 0.621948 1.77222 0.934509 1.37212 1.34401C0.965791 1.74412 0.650177 2.22858 0.450065 2.75994C0.253126 3.26944 0.115648 3.85073 0.0781653 4.70087C0.0375079 5.55736 0.0281067 5.82926 0.0281067 8.00156C0.0281067 10.1739 0.0375079 10.4458 0.0749909 11.2991C0.112474 12.1492 0.250074 12.7337 0.447012 13.2401C0.650177 13.7777 0.965791 14.259 1.37212 14.6591C1.77222 15.0654 2.25669 15.3812 2.78805 15.5812C3.29755 15.7781 3.87884 15.9156 4.7291 15.9531C5.5823 15.9907 5.85432 16 8.02663 16C10.1989 16 10.4708 15.9907 11.3241 15.9531C12.1743 15.9156 12.7588 15.7781 13.2651 15.5812C14.3404 15.1654 15.1905 14.3153 15.6062 13.2401C15.8031 12.7306 15.9407 12.1492 15.9781 11.2991C16.0156 10.4458 16.025 10.1739 16.025 8.00156C16.025 5.82926 16.0218 5.55736 15.9844 4.70404ZM14.5435 11.2366C14.5091 12.018 14.3778 12.4399 14.2685 12.7212C13.9996 13.4183 13.4464 13.9715 12.7494 14.2403C12.4681 14.3497 12.043 14.481 11.2647 14.5153C10.4208 14.5529 10.1677 14.5622 8.03285 14.5622C5.89803 14.5622 5.64176 14.5529 4.80089 14.5153C4.01949 14.481 3.59753 14.3497 3.31623 14.2403C2.96936 14.1121 2.65362 13.909 2.39735 13.6433C2.13167 13.3838 1.9285 13.0713 1.80031 12.7244C1.69091 12.4431 1.55966 12.018 1.52535 11.2397C1.48774 10.3958 1.47846 10.1426 1.47846 8.00779C1.47846 5.87297 1.48774 5.6167 1.52535 4.77596C1.55966 3.99455 1.69091 3.5726 1.80031 3.29129C1.9285 2.9443 2.13167 2.62869 2.40052 2.37229C2.65985 2.10661 2.97241 1.90345 3.3194 1.77537C3.60071 1.66597 4.02584 1.53472 4.80407 1.50029C5.64798 1.46281 5.90121 1.45341 8.0359 1.45341C10.1739 1.45341 10.427 1.46281 11.2679 1.50029C12.0493 1.53472 12.4712 1.66597 12.7525 1.77537C13.0994 1.90345 13.4151 2.10661 13.6714 2.37229C13.9371 2.63174 14.1403 2.9443 14.2685 3.29129C14.3778 3.5726 14.5091 3.99761 14.5435 4.77596C14.581 5.61987 14.5904 5.87297 14.5904 8.00779C14.5904 10.1426 14.581 10.3927 14.5435 11.2366Z" fill="#1943EF"/>
<path d="M8.02967 3.89136C5.76055 3.89136 3.91949 5.73229 3.91949 8.00153C3.91949 10.2708 5.76055 12.1117 8.02967 12.1117C10.2989 12.1117 12.1398 10.2708 12.1398 8.00153C12.1398 5.73229 10.2989 3.89136 8.02967 3.89136ZM8.02967 10.6677C6.55758 10.6677 5.3635 9.47375 5.3635 8.00153C5.3635 6.52932 6.55758 5.33536 8.02967 5.33536C9.50188 5.33536 10.6958 6.52932 10.6958 8.00153C10.6958 9.47375 9.50188 10.6677 8.02967 10.6677Z" fill="#1943EF"/>
<path d="M13.262 3.72883C13.262 4.25872 12.8324 4.68837 12.3024 4.68837C11.7725 4.68837 11.3428 4.25872 11.3428 3.72883C11.3428 3.19882 11.7725 2.76929 12.3024 2.76929C12.8324 2.76929 13.262 3.19882 13.262 3.72883Z" fill="#1943EF"/>
</g>
<defs>
<clipPath id="clip0">
<rect width="16" height="16" fill="white"/>
</clipPath>
</defs>
</svg>
