<svg width="190" height="37" viewBox="0 0 190 37" fill="none" xmlns="http://www.w3.org/2000/svg">
<g clip-path="url(#clip0)">
<path d="M0 5.14383C0 4.39886 0.213443 3.83127 0.604756 3.44105C0.996068 3.05083 1.56525 2.83798 2.3123 2.83798H8.43101C10.5299 2.83798 12.3441 3.12178 13.9805 3.6539C15.5814 4.18602 16.9332 5.00193 18.036 6.0307C19.1387 7.05946 19.9569 8.30107 20.4905 9.791C21.0597 11.2809 21.3087 12.9837 21.3087 14.8639C21.3087 16.9214 21.0242 18.7306 20.4194 20.3624C19.8146 21.9943 18.9253 23.3778 17.7869 24.4775C16.6486 25.6127 15.2256 26.4641 13.5536 27.0671C11.8817 27.6702 9.99626 27.954 7.8974 27.954H2.3123C1.56525 27.954 0.996068 27.7411 0.604756 27.3509C0.213443 26.9252 0 26.3576 0 25.6481V5.14383ZM8.18199 24.0163C9.3915 24.0163 10.4943 23.8389 11.4904 23.4487C12.4509 23.0585 13.3046 22.5264 13.9805 21.7814C14.6564 21.0364 15.19 20.1141 15.5458 19.0144C15.9015 17.9147 16.0794 16.6376 16.0794 15.1831C16.0794 13.7287 15.9015 12.4871 15.5814 11.4228C15.2612 10.3586 14.7632 9.47173 14.0873 8.76224C13.4113 8.05275 12.5931 7.5561 11.5971 7.20136C10.601 6.84661 9.46265 6.70471 8.14642 6.70471H5.08706V24.0163H8.18199Z" fill="black"/>
<path d="M25.6132 11.4583C25.6132 10.7488 25.8266 10.2167 26.2179 9.82647C26.6092 9.43625 27.2496 9.25888 28.1033 9.25888C28.9571 9.25888 29.5619 9.43625 29.9887 9.82647C30.3801 10.2167 30.5935 10.7488 30.5935 11.4583V25.8965C30.5935 26.606 30.3801 27.1381 29.9887 27.5283C29.5974 27.9185 28.9571 28.0959 28.1033 28.0959C27.2496 28.0959 26.6448 27.9185 26.2179 27.5283C25.8266 27.1026 25.6132 26.5705 25.6132 25.8965V11.4583Z" fill="#1942E9"/>
<path d="M49.59 11.1745C50.1591 11.7066 50.6216 12.3452 50.9418 13.0546C51.2619 13.7641 51.4042 14.5091 51.4042 15.2895C51.4042 16.2828 51.2264 17.1697 50.8706 18.0211C50.5149 18.8725 49.9813 19.582 49.3054 20.185C48.5939 20.7881 47.7401 21.2493 46.7085 21.604C45.6768 21.9588 44.5029 22.1007 43.1867 22.1007C42.7954 22.1007 42.404 22.0652 42.0127 22.0297C41.657 21.9942 41.3013 21.9233 40.9455 21.8169C40.8032 21.9588 40.6609 22.1007 40.5542 22.2426C40.4475 22.3845 40.3763 22.5264 40.3052 22.7037C40.234 22.8811 40.1985 23.0585 40.1985 23.2713C40.1985 23.5197 40.234 23.7325 40.3408 23.9453C40.4475 24.1227 40.5898 24.3001 40.8388 24.442C41.0878 24.5839 41.408 24.6903 41.8349 24.7613C42.2617 24.8322 42.7598 24.8677 43.4001 24.8677H45.6768C46.9219 24.8677 47.9891 24.9741 48.9141 25.2224C49.839 25.4708 50.586 25.8255 51.1552 26.2867C51.76 26.7478 52.1869 27.28 52.4714 27.9185C52.756 28.557 52.8983 29.2665 52.8983 30.0825C52.8983 31.0048 52.6849 31.8917 52.258 32.743C51.8311 33.559 51.1908 34.3039 50.3726 34.907C49.5544 35.5101 48.4872 36.0067 47.2421 36.3969C45.997 36.7517 44.5385 36.929 42.9021 36.929C41.3724 36.929 40.0562 36.7871 38.9534 36.5034C37.8506 36.2196 36.9612 35.8293 36.2853 35.3327C35.6094 34.836 35.0758 34.2685 34.7557 33.5944C34.4355 32.9204 34.2576 32.2464 34.2576 31.5014C34.2576 30.6855 34.3999 30.0115 34.7201 29.4439C35.0047 28.8763 35.3604 28.3797 35.7162 27.9895C36.143 27.5283 36.6055 27.1735 37.1747 26.8897C36.7478 26.4995 36.4276 26.0738 36.1786 25.6127C35.9652 25.116 35.8229 24.6194 35.8229 24.0518C35.8229 23.5197 35.9296 23.023 36.1075 22.5973C36.2853 22.1716 36.5344 21.8169 36.7834 21.4976C37.068 21.1429 37.3881 20.8236 37.7439 20.5398C36.9968 19.9722 36.4276 19.2627 36.0007 18.4823C35.6094 17.7018 35.396 16.8504 35.396 15.9281C35.396 14.9348 35.5739 14.0479 35.9296 13.1965C36.2853 12.3806 36.8189 11.6357 37.4949 11.0326C38.2063 10.4295 39.0601 9.93288 40.0917 9.61361C41.1234 9.25887 42.2973 9.11697 43.6491 9.11697C44.1827 9.11697 44.7163 9.15244 45.2144 9.22339C45.7124 9.29434 46.1749 9.40076 46.6373 9.57814L48.7362 7.02397C49.0564 6.63375 49.3409 6.34995 49.59 6.17258C49.839 6.03068 50.1236 5.92426 50.4793 5.92426C50.7283 5.92426 50.9773 5.95973 51.2264 6.06615C51.4754 6.17258 51.6888 6.31448 51.8667 6.49185C52.0446 6.66922 52.1869 6.88207 52.3292 7.09492C52.4359 7.34324 52.507 7.59156 52.507 7.83988C52.507 8.15915 52.4003 8.44295 52.2224 8.69127C52.0446 8.9396 51.76 9.25887 51.3687 9.61361L49.59 11.1745ZM42.8309 28.3797C42.404 28.3797 42.0127 28.3442 41.6214 28.3087C41.2657 28.2732 40.8744 28.2023 40.5186 28.1313C40.2696 28.3442 40.0206 28.557 39.8427 28.8408C39.6649 29.0537 39.5226 29.3375 39.3803 29.6568C39.238 29.976 39.1668 30.3308 39.1668 30.7565C39.1668 31.1467 39.238 31.5014 39.4158 31.8207C39.5581 32.14 39.8072 32.4238 40.1629 32.6721C40.4831 32.9204 40.9099 33.0978 41.408 33.2397C41.906 33.3816 42.5108 33.4525 43.2222 33.4525C44.0404 33.4525 44.7519 33.3816 45.3567 33.2397C45.9614 33.0978 46.4595 32.8849 46.8508 32.6366C47.2421 32.3883 47.5267 32.069 47.7401 31.7143C47.918 31.3595 48.0247 31.0048 48.0247 30.6146C48.0247 30.2953 47.9536 29.976 47.8468 29.7277C47.7401 29.4794 47.5623 29.2311 47.2777 29.0537C47.0286 28.8763 46.6729 28.6989 46.2816 28.5925C45.8547 28.4861 45.3567 28.4506 44.7519 28.4506H42.8309V28.3797ZM40.0917 15.5379C40.0917 15.999 40.1629 16.4602 40.3052 16.8504C40.4475 17.2406 40.6609 17.5599 40.9455 17.8437C41.2301 18.1275 41.5858 18.3404 41.9772 18.4823C42.3685 18.6242 42.8309 18.6951 43.3645 18.6951C43.8981 18.6951 44.325 18.6242 44.7163 18.4823C45.1077 18.3404 45.4634 18.1275 45.748 17.8792C46.0326 17.5954 46.246 17.2761 46.3883 16.9214C46.5306 16.5312 46.6018 16.1409 46.6018 15.6798C46.6018 15.2186 46.5306 14.7929 46.3883 14.4027C46.246 14.0125 46.0326 13.6932 45.748 13.4094C45.4634 13.1256 45.1077 12.9127 44.7163 12.7709C44.2895 12.629 43.827 12.558 43.329 12.558C42.8309 12.558 42.3685 12.629 41.9772 12.7709C41.5858 12.9127 41.2301 13.1256 40.9455 13.3739C40.6609 13.6577 40.4475 13.977 40.3052 14.3317C40.1629 14.651 40.0917 15.0767 40.0917 15.5379Z" fill="black"/>
<path d="M55.8865 11.4583C55.8865 10.7488 56.1 10.2167 56.4913 9.82647C56.8826 9.43625 57.5229 9.25888 58.3767 9.25888C59.2305 9.25888 59.8352 9.43625 60.2621 9.82647C60.6534 10.2167 60.8669 10.7488 60.8669 11.4583V25.8965C60.8669 26.606 60.6534 27.1381 60.2621 27.5283C59.8708 27.9185 59.2305 28.0959 58.3767 28.0959C57.5229 28.0959 56.9182 27.9185 56.4913 27.5283C56.1 27.1381 55.8865 26.606 55.8865 25.8965V11.4583Z" fill="black"/>
<path d="M65.5626 13.0901C65.0646 13.0901 64.6733 12.9482 64.3887 12.6289C64.1041 12.3097 63.9262 11.8485 63.9262 11.2454C63.9262 10.6424 64.0685 10.1812 64.3887 9.86193C64.6733 9.54266 65.0646 9.40076 65.5626 9.40076H67.1634L67.7326 6.31447C67.8749 5.60498 68.1239 5.10833 68.4797 4.78906C68.8354 4.46979 69.3334 4.29242 69.9738 4.29242C70.6141 4.29242 71.1121 4.46979 71.4323 4.82454C71.788 5.17928 71.9303 5.67593 71.9303 6.31447V9.40076H75.0252C75.5233 9.40076 75.9146 9.54266 76.1992 9.86193C76.4838 10.1812 76.6616 10.6424 76.6616 11.2454C76.6616 11.8485 76.5194 12.3097 76.1992 12.6289C75.9146 12.9482 75.5233 13.0901 75.0252 13.0901H71.9303V21.8523C71.9303 22.7037 72.0726 23.3423 72.3572 23.697C72.6418 24.0518 73.1043 24.2291 73.709 24.2291C73.9225 24.2291 74.1359 24.2291 74.2782 24.1937C74.4561 24.1582 74.5984 24.1227 74.7407 24.0872C74.883 24.0518 74.9897 24.0163 75.0964 23.9808C75.2031 23.9453 75.3098 23.9453 75.4521 23.9453C75.63 23.9453 75.8435 23.9808 75.9857 24.0518C76.1636 24.1227 76.3059 24.2291 76.4126 24.3356C76.5194 24.4775 76.6261 24.6194 76.6972 24.7967C76.7684 24.9741 76.8039 25.187 76.8039 25.3998C76.8039 25.7545 76.7328 26.0383 76.6261 26.2512C76.5193 26.4995 76.3415 26.7124 76.1636 26.9252C76.0569 27.0316 75.879 27.1735 75.6656 27.3154C75.4521 27.4573 75.2031 27.5638 74.883 27.6702C74.5628 27.7766 74.207 27.883 73.7802 27.954C73.3533 28.0249 72.8908 28.0604 72.3572 28.0604C70.5074 28.0604 69.12 27.6347 68.2662 26.7478C67.3769 25.861 66.95 24.5129 66.95 22.7037V13.0901H65.5626Z" fill="black"/>
<path d="M90.3932 16.1055C90.3932 15.5379 90.322 15.0412 90.1797 14.6155C90.0374 14.1898 89.824 13.8706 89.5394 13.6223C89.2548 13.3739 88.8279 13.1611 88.3655 13.0547C87.8674 12.9128 87.2627 12.8773 86.5512 12.8773C85.8041 12.8773 85.1638 12.9482 84.6302 13.0547C84.0966 13.1611 83.6341 13.303 83.2428 13.4449C82.8515 13.5868 82.5314 13.6932 82.2112 13.8351C81.9266 13.9415 81.642 14.0125 81.393 14.0125C80.9661 14.0125 80.5748 13.8706 80.2902 13.5868C80.0056 13.303 79.8633 12.9128 79.8633 12.3806C79.8633 12.0968 79.8989 11.8485 80.0056 11.6357C80.0767 11.4228 80.2546 11.21 80.4325 11.0326C80.6104 10.8552 80.9305 10.6424 81.3574 10.4295C81.7843 10.2167 82.3179 10.0038 82.9227 9.82647C83.5274 9.6491 84.2389 9.5072 85.0215 9.3653C85.8041 9.25888 86.6579 9.18793 87.6184 9.18793C90.1797 9.18793 92.0652 9.75552 93.3458 10.8552C94.6265 11.9549 95.2668 13.5513 95.2668 15.6798V21.6395C95.2668 22.4554 95.3024 23.1294 95.3735 23.6616C95.4447 24.1937 95.5158 24.5839 95.587 24.9386C95.6581 25.2934 95.7293 25.5772 95.8004 25.79C95.8716 26.0029 95.9071 26.2512 95.9071 26.4995C95.9071 26.7479 95.8716 26.9962 95.7648 27.209C95.6581 27.4219 95.5158 27.6347 95.338 27.7766C95.1601 27.954 94.9111 28.0604 94.662 28.1668C94.3775 28.2733 94.0573 28.3087 93.7371 28.3087C93.3458 28.3087 93.0257 28.2378 92.7055 28.1314C92.4209 28.0249 92.1363 27.8476 91.9229 27.6347C91.7094 27.4219 91.496 27.1735 91.3537 26.8898C91.2114 26.606 91.0691 26.2867 90.9624 25.9674H90.8912C90.4999 26.4286 90.073 26.8543 89.5038 27.209C89.0414 27.5283 88.4722 27.8121 87.7607 28.0604C87.0492 28.3087 86.231 28.4506 85.2705 28.4506C84.2745 28.4506 83.3495 28.3087 82.5669 28.0249C81.7843 27.7411 81.1084 27.3509 80.5392 26.8543C79.97 26.3576 79.5431 25.7546 79.2586 25.0451C78.974 24.3356 78.8317 23.5906 78.8317 22.7747C78.8317 21.8878 79.0095 21.1074 79.4008 20.4688C79.7922 19.7948 80.3258 19.2272 81.0372 18.8015C81.7487 18.3404 82.6025 18.0211 83.5986 17.8083C84.5946 17.5954 85.6974 17.4535 86.9425 17.4535C87.4405 17.4535 87.903 17.489 88.3299 17.5245C88.7212 17.5599 89.0769 17.5954 89.3971 17.6309C89.7529 17.6664 90.0374 17.7373 90.322 17.8083V16.1055H90.3932ZM90.3932 20.7881C90.1442 20.7172 89.8951 20.6817 89.575 20.6107C89.326 20.5753 89.0058 20.5043 88.6856 20.4688C88.3299 20.4334 87.9742 20.3979 87.5473 20.3979C86.3378 20.3979 85.4128 20.5753 84.8437 20.8945C84.2389 21.2493 83.9543 21.7459 83.9543 22.3845C83.9543 22.7037 84.0255 22.9875 84.1322 23.2713C84.2389 23.5551 84.4168 23.768 84.6658 23.9808C84.9148 24.1582 85.1994 24.3356 85.5196 24.442C85.8753 24.5484 86.2666 24.6194 86.6935 24.6194C87.2627 24.6194 87.7963 24.513 88.2587 24.3001C88.7212 24.0873 89.1125 23.8744 89.4327 23.6261C89.7884 23.3423 90.1086 23.023 90.3932 22.6328V20.7881Z" fill="black"/>
<path d="M100.532 3.0863C100.532 2.3768 100.745 1.84469 101.136 1.45446C101.528 1.06424 102.168 0.886871 103.022 0.886871C103.876 0.886871 104.48 1.06424 104.907 1.45446C105.299 1.84469 105.512 2.3768 105.512 3.0863V21.8524C105.512 22.3135 105.548 22.7392 105.619 23.023C105.69 23.3423 105.761 23.5906 105.868 23.768C105.975 23.9454 106.117 24.0873 106.295 24.1582C106.437 24.2292 106.615 24.2646 106.828 24.2646C107.006 24.2646 107.148 24.2646 107.291 24.2292C107.433 24.1937 107.575 24.1937 107.682 24.1937C107.824 24.1937 108.002 24.2292 108.145 24.3001C108.287 24.371 108.429 24.442 108.536 24.5839C108.643 24.6903 108.749 24.8677 108.785 25.0451C108.856 25.2224 108.892 25.4353 108.892 25.6481C108.892 26.0029 108.856 26.2867 108.749 26.535C108.643 26.7833 108.5 26.9962 108.322 27.1735C108.216 27.28 108.038 27.4219 107.896 27.5283C107.718 27.6347 107.504 27.7411 107.291 27.8121C107.042 27.9185 106.757 27.9895 106.437 28.0249C106.117 28.0604 105.726 28.0959 105.299 28.0959C103.733 28.0959 102.559 27.6702 101.777 26.8543C100.994 26.0384 100.567 24.7967 100.567 23.1294V3.0863H100.532Z" fill="black"/>
<path d="M120.204 12.8063C120.062 12.3806 119.991 12.0614 119.955 11.8485C119.919 11.6711 119.919 11.4938 119.919 11.3519C119.919 10.9971 119.991 10.6779 120.169 10.4295C120.346 10.1457 120.56 9.93289 120.844 9.75552C121.129 9.57814 121.414 9.43624 121.734 9.32982C122.054 9.2234 122.374 9.18792 122.659 9.18792C123.014 9.18792 123.335 9.2234 123.584 9.32982C123.868 9.43624 124.082 9.57814 124.259 9.75552C124.437 9.93289 124.58 10.1812 124.686 10.465C124.793 10.7488 124.9 11.139 125.007 11.6002L127.461 20.7526C127.568 21.1429 127.639 21.5331 127.71 21.8524C127.781 22.2071 127.852 22.4909 127.888 22.7392C127.924 23.023 127.995 23.3068 128.03 23.5197H128.101C128.137 23.2713 128.173 23.023 128.244 22.7037C128.279 22.4554 128.35 22.1716 128.422 21.8169C128.493 21.4621 128.6 21.1074 128.706 20.7172L131.019 12.0259C131.161 11.5292 131.303 11.0681 131.481 10.7133C131.659 10.3586 131.872 10.0393 132.157 9.82647C132.406 9.57814 132.726 9.43624 133.082 9.32982C133.438 9.2234 133.864 9.15245 134.327 9.15245C134.825 9.15245 135.252 9.2234 135.572 9.32982C135.928 9.43624 136.248 9.61362 136.497 9.82647C136.746 10.0748 136.959 10.3586 137.173 10.7133C137.351 11.0681 137.529 11.5292 137.635 12.0259L139.948 20.7172C140.054 21.1074 140.125 21.4621 140.197 21.8169C140.268 22.1716 140.339 22.4554 140.41 22.7037C140.481 22.9875 140.517 23.2713 140.552 23.5197H140.623C140.659 23.2713 140.73 23.023 140.766 22.7037C140.801 22.4554 140.872 22.1716 140.944 21.8169C141.015 21.4621 141.086 21.1074 141.193 20.7172L143.469 11.5292C143.576 11.1036 143.683 10.7488 143.754 10.4295C143.861 10.1103 143.967 9.89741 144.181 9.68457C144.359 9.50719 144.572 9.3653 144.857 9.25887C145.141 9.15245 145.426 9.11697 145.782 9.11697C146.102 9.11697 146.386 9.15245 146.707 9.25887C147.027 9.32982 147.276 9.47172 147.525 9.64909C147.774 9.82647 147.952 10.0393 148.094 10.2876C148.236 10.536 148.307 10.8198 148.307 11.139C148.307 11.2809 148.307 11.4228 148.272 11.6002C148.236 11.7776 148.165 12.0968 148.058 12.5225L144.501 24.6903C144.323 25.2579 144.145 25.7546 143.967 26.1448C143.79 26.535 143.576 26.8543 143.327 27.1026C143.007 27.4219 142.651 27.6347 142.224 27.7766C141.797 27.9185 141.264 27.9895 140.659 27.9895C140.054 27.9895 139.556 27.9185 139.129 27.7766C138.702 27.6347 138.347 27.4219 138.027 27.1381C137.778 26.8897 137.564 26.535 137.386 26.1093C137.208 25.6836 137.066 25.187 136.888 24.5839L134.825 17.1342C134.718 16.7085 134.611 16.3183 134.54 15.9636C134.469 15.6088 134.398 15.2896 134.362 15.0058C134.327 14.6865 134.256 14.4027 134.22 14.1189H134.113C134.078 14.4027 134.042 14.6865 133.971 15.0058C133.936 15.2896 133.864 15.6088 133.793 15.9636C133.722 16.3183 133.615 16.7085 133.509 17.1342L131.374 24.6903C131.232 25.2579 131.054 25.7546 130.876 26.1803C130.698 26.6059 130.485 26.9607 130.236 27.209C129.951 27.4928 129.596 27.7057 129.169 27.8476C128.742 27.9895 128.208 28.0604 127.603 28.0604C126.963 28.0604 126.43 27.9895 125.967 27.8476C125.505 27.7057 125.184 27.4928 124.9 27.209C124.651 26.9607 124.437 26.6414 124.259 26.2867C124.082 25.8965 123.904 25.4353 123.726 24.8677L120.204 12.8063Z" fill="#1943EF"/>
<path d="M155.849 19.6884V19.7239C155.92 20.4689 156.098 21.1429 156.347 21.7459C156.632 22.3135 156.987 22.8102 157.414 23.2359C157.877 23.6261 158.41 23.9454 159.015 24.1582C159.62 24.3711 160.331 24.4775 161.114 24.4775C161.754 24.4775 162.288 24.442 162.75 24.3356C163.213 24.2646 163.604 24.1582 163.96 24.0518C164.316 23.9454 164.6 23.8389 164.849 23.768C165.098 23.697 165.347 23.6261 165.596 23.6261C165.845 23.6261 166.023 23.6616 166.201 23.768C166.379 23.8389 166.557 23.9808 166.664 24.1227C166.806 24.2646 166.877 24.4065 166.948 24.6194C167.019 24.7968 167.055 25.0096 167.055 25.187C167.055 25.5062 167.019 25.7546 166.913 25.9674C166.806 26.1803 166.664 26.4286 166.45 26.6414C166.272 26.8188 165.988 27.0317 165.632 27.209C165.276 27.4219 164.849 27.5992 164.316 27.7411C163.782 27.9185 163.177 28.0249 162.501 28.1668C161.826 28.2733 161.043 28.3442 160.189 28.3442C158.731 28.3442 157.45 28.1314 156.276 27.7057C155.102 27.28 154.142 26.6769 153.323 25.8965C152.505 25.116 151.9 24.1582 151.474 23.0585C151.047 21.9588 150.833 20.6817 150.833 19.2982C150.833 17.6664 151.047 16.2474 151.509 14.9703C151.972 13.6932 152.612 12.629 153.43 11.7421C154.248 10.8552 155.209 10.1812 156.383 9.72005C157.521 9.25888 158.766 9.01056 160.154 9.01056C161.327 9.01056 162.395 9.18793 163.32 9.54268C164.28 9.89742 165.098 10.4295 165.739 11.1036C166.415 11.7776 166.913 12.629 167.304 13.6223C167.66 14.6155 167.838 15.7153 167.838 16.9923C167.838 17.9147 167.624 18.5887 167.197 19.0144C166.77 19.4401 166.166 19.6884 165.383 19.6884H155.849ZM163.284 16.5312C163.142 15.1831 162.75 14.1544 162.181 13.5158C161.612 12.8773 160.794 12.558 159.727 12.558C159.3 12.558 158.873 12.629 158.482 12.7709C158.09 12.9128 157.699 13.1611 157.379 13.4804C157.059 13.7996 156.738 14.2253 156.525 14.722C156.276 15.2186 156.098 15.8217 155.956 16.5312H163.284Z" fill="#1943EF"/>
<path d="M172.213 3.0863C172.213 2.3768 172.427 1.84469 172.818 1.45446C173.209 1.06424 173.849 0.886871 174.703 0.886871C175.557 0.886871 176.162 1.06424 176.589 1.45446C176.98 1.84469 177.193 2.3768 177.193 3.0863V8.58486C177.193 9.04603 177.193 9.5072 177.158 9.96837C177.122 10.4295 177.087 10.8907 177.016 11.3874H177.087C177.442 10.9617 177.869 10.5714 178.367 10.2167C178.581 10.0748 178.83 9.93289 179.114 9.79099C179.399 9.6491 179.684 9.5072 180.004 9.40077C180.324 9.29435 180.68 9.18793 181.107 9.11698C181.498 9.04603 181.925 9.01055 182.387 9.01055C183.526 9.01055 184.557 9.18793 185.518 9.57815C186.443 9.96837 187.261 10.536 187.937 11.2809C188.613 12.0259 189.111 12.9837 189.502 14.1189C189.858 15.2541 190.036 16.6021 190.036 18.092C190.036 19.6884 189.787 21.1074 189.324 22.3845C188.862 23.6261 188.186 24.6903 187.296 25.5772C186.407 26.4641 185.34 27.1026 184.024 27.5638C182.707 28.0249 181.249 28.2378 179.612 28.2378C178.652 28.2378 177.798 28.1668 177.051 28.0604C176.304 27.954 175.664 27.8121 175.095 27.6347C174.561 27.4573 174.098 27.28 173.743 27.1026C173.387 26.9252 173.138 26.7479 172.96 26.5705C172.853 26.4641 172.747 26.3222 172.64 26.1803C172.533 26.0384 172.462 25.8965 172.427 25.7546C172.355 25.6127 172.32 25.3998 172.284 25.2224C172.249 25.0096 172.249 24.7967 172.249 24.5129V3.0863H172.213ZM177.193 23.8744C177.371 23.9808 177.62 24.1227 177.905 24.1937C178.154 24.2646 178.438 24.3711 178.794 24.4065C179.15 24.4775 179.541 24.5129 180.039 24.5129C180.786 24.5129 181.427 24.3711 182.031 24.1227C182.636 23.8744 183.134 23.4842 183.561 22.9875C183.988 22.4909 184.308 21.8524 184.557 21.1074C184.806 20.3624 184.913 19.4756 184.913 18.4468C184.913 17.4535 184.806 16.6021 184.628 15.8926C184.45 15.1831 184.201 14.6155 183.846 14.1898C183.526 13.7641 183.134 13.4449 182.636 13.232C182.174 13.0192 181.64 12.9482 181.071 12.9482C180.751 12.9482 180.431 12.9837 180.146 13.0547C179.861 13.1256 179.577 13.232 179.328 13.3385C179.079 13.4449 178.865 13.5868 178.652 13.7641C178.438 13.9415 178.261 14.0834 178.118 14.2608C177.727 14.651 177.407 15.1122 177.158 15.6088V23.8744H177.193Z" fill="#1943EF"/>
</g>
<defs>
<clipPath id="clip0">
<rect width="190" height="37" fill="white"/>
</clipPath>
</defs>
</svg>
