<?xml version="1.0" encoding="utf-8"?>
<!-- Generator: Adobe Illustrator 24.3.0, SVG Export Plug-In . SVG Version: 6.00 Build 0)  -->
<svg version="1.1" id="Layer_1" xmlns="http://www.w3.org/2000/svg" xmlns:xlink="http://www.w3.org/1999/xlink" x="0px" y="0px"
	 viewBox="0 0 200 200" style="enable-background:new 0 0 200 200;" xml:space="preserve">
<style type="text/css">
	.st0{fill:#ECEEFB;}
	.st1{fill:#1943EF;}
	.st2{fill:url(#SVGID_1_);}
</style>
<circle class="st0" cx="101.2" cy="101.9" r="65.9"/>
<circle class="st1" cx="181.8" cy="58.3" r="5.4"/>
<g>
	<linearGradient id="SVGID_1_" gradientUnits="userSpaceOnUse" x1="37.9565" y1="138.8992" x2="57.4676" y2="138.8992">
		<stop  offset="0" style="stop-color:#FD9C29"/>
		<stop  offset="1" style="stop-color:#E06B43"/>
	</linearGradient>
	<path class="st2" d="M47.7,129.1c-5.4,0-9.8,4.4-9.8,9.8s4.4,9.8,9.8,9.8s9.8-4.4,9.8-9.8S53.1,129.1,47.7,129.1z M47.7,144.6
		c-3.2,0-5.7-2.6-5.7-5.7c0-3.2,2.6-5.7,5.7-5.7s5.7,2.6,5.7,5.7C53.4,142.1,50.9,144.6,47.7,144.6z"/>
</g>
<g>
	<g>
		<path class="st1" d="M116.4,94.5c0,0-4.8,14.9-5.1,16.2c-0.1-1.3-3.6-28.1-3.6-28.1c-8.1,0-12.4,5.8-14.7,11.9
			c0,0-5.8,15-6.3,16.2c0-1.2-0.9-16.1-0.9-16.1c-0.5-7.5-7.3-12-12.8-12l6.7,40.6c8.5,0,13.1-5.8,15.5-11.9c0,0,5.1-13.2,5.3-13.8
			c0.1,0.6,3.7,25.7,3.7,25.7c8.5,0,13.1-5.4,15.6-11.3l11.9-29.3C123,82.6,118.6,88.4,116.4,94.5z"/>
	</g>
</g>
</svg>
